<svg width="20" height="20" viewBox="0 0 20 20" fill="none" xmlns="http://www.w3.org/2000/svg">
<path fill-rule="evenodd" clip-rule="evenodd" d="M10.005 3.75C9.384 3.75 8.88 4.253 8.88 4.875C8.88 5.496 9.384 6 10.005 6C10.626 6 11.13 5.496 11.13 4.875C11.13 4.253 10.626 3.75 10.005 3.75ZM11 8.875C11 8.323 10.553 7.875 10 7.875C9.447 7.875 9 8.323 9 8.875L9 15C9 15.552 9.447 16 10 16C10.553 16 11 15.552 11 15L11 8.875ZM10 20C4.477 20 1.35698e-06 15.522 8.74228e-07 10C3.91479e-07 4.478 4.477 1.8399e-06 10 8.74228e-07C15.522 -9.12692e-08 20 4.478 20 10C20 15.522 15.522 20 10 20Z" fill="#7187A1"/>
</svg>
